<svg xmlns="http://www.w3.org/2000/svg" width="64" height="64" fill="none"><path fill="#FF7A59" d="M48 21.1v-7.5a5.9 5.9 0 003.5-5.3V8a5.9 5.9 0 00-5.9-5.8h-.2A5.9 5.9 0 0039.6 8v.2a5.8 5.8 0 003.3 5.3v7.6c-2.8.4-5.6 1.6-7.9 3.4L14.1 8.4a6.6 6.6 0 00-8-8.2A6.7 6.7 0 002.7 11a6.7 6.7 0 008.4 1.4l20.6 16a16.6 16.6 0 00.2 18.8l-6.2 6.2c-.5-.2-1-.2-1.6-.2a5.4 5.4 0 00-5.3 6.4 5.4 5.4 0 009.8 2 5.4 5.4 0 00.7-4.6l6.2-6.1A16.7 16.7 0 0060 29.5a16.7 16.7 0 00-12-8.4zm-2.5 25A8.6 8.6 0 0137.1 36a8.5 8.5 0 0111.7-6.2 8.6 8.6 0 01-3.3 16.5"/></svg>
