<svg xmlns="http://www.w3.org/2000/svg" width="64" height="64" fill="none"><g fill="#000" clip-path="url(#clip0)"><path d="M62.7 41.7a3.3 3.3 0 00-2.3-1.8c-.4-1.7-1-2.4-1-2.6.2-.2.5-.3.5-.5 1.5-1.8.5-4.5-2-5.1-1.5-1.4-2.8-2-4-2.6l-1.5-.8c-.3-1.3-.4-4-.8-6.2a6.7 6.7 0 00-2.2-4c-.5-1-1-1.9-1.8-2.6 3.6-5.5 4.5-10.9 2-13.7C48.4.5 46.7 0 44.6 0c-2.9 0-6.4 1.2-10 3.3l-2.4-1.9c-10-7.8-38.5 27-28.5 34.7L6.3 38a9 9 0 008.8 12s7.6 14 23.7 14C57.3 64 62 45.8 62 45.7c-.2.1 1.4-2.2.6-4zm-58.3-8c-2-3.4 1.5-10.4 4-14.5C14.8 9.2 25.2 1.4 30 2.6l1.3-.5s3.4 3 3.6 3c2.4-1.5 5.5-3 8.3-3.3-1.8.4-3.8 1.3-6.4 2.8 0 0-6 4.2-9.7 7.8-1.9 1.9-9.9 11.6-9.9 11.4A72.9 72.9 0 0126 12.1l2-2c.6-.3 1-.8 1.5-1.2l.6-.5-4.6-3.9.2 1.7 3.4 3s-3 2-4.5 3.3c-6 5.1-11.9 13-14 20.6-1 .6-2.1 1.5-3 2.8-.4.2-2.8-1.5-3.2-2.2zM14.3 48c-3.6 0-6.5-3-6.5-6.8 0-3.7 3-6.8 6.5-6.8.9 0 1.8.2 2.6.5 0 0 1.4.6 1.8 4l.6-2c.5 1.5.6 3 .6 4.4l.8-1.4c.8 4.4-2.3 8.1-6.4 8.1zm8-24s2.8-5.3 8.9-9l-1.8.2c1.1-1 3.2-1.6 4.6-2-.4-.2-1.4-.3-2-.3h-.2c1.3-.8 3.9-1.2 6-.8-.2-.4-.9-.6-1.4-.8h-.2.1a8 8 0 014.3.5l-.8-1-.1-.1c1.2.2 2.5.9 3.6 1.5a4 4 0 00-.7-.9c1.3.4 2.7 1.3 3.4 2.6v.1c-2.5-1.8-9.4-1.3-16.4 3.3-3 2-5.5 4.2-7.3 6.7zM60 45c-.1 0-.9 4.8-6 8.8-6.3 5-14.7 4.5-18 1.7a10.5 10.5 0 01-2.4-3.9l-.2 1.8c-1.3-2.1-1.2-4.7-1.2-4.7l-1 2c-1-2.5-.5-5-.5-5L30 47s-.4-2.7.5-5c1-2.4 2.7-4 3.1-4.3-1.3-.4-2.8-1.7-2.8-1.7h1S29.1 34 28.6 31c.4.5 1.1 1 1.1 1-.2-.7-.3-2.4 0-4.2a6.3 6.3 0 016-5.4c3.3 0 5.5.7 8.2-1.8.5-.5 1-1 1.8-1.2h.8c.4 0 .9 0 1.3.3 1.4.9 1.8 3.2 1.9 4.9.6 6.2.4 5.1 2.8 6.4 1.2.7 2.6 1.2 4.2 2.9 1.2 0 1.9 1 1.4 1.8a22.9 22.9 0 01-17.2 7.8H40c-2.7.2-3.6 3.6-1.9 5.7 1 1.3 3.2 1.8 4.9 1.8 7.3.1 14.8-5 16.1-8l.1-.2c-.2.3-7.4 7-16.2 6.8 0 0-.9 0-1.8-.3-1.2-.2-2-.8-2.4-2 .7.2 1.6.3 2.7.3 6.3 0 10.8-2.8 10.4-3h-.1c-.8.2-8.4 3.2-13.2 1.6l.2-.4c.3-1.4 1.1-1.2 2.4-1.2 4.4-.2 7.9-1.3 10.6-2.5 2.8-1.3 5-3 5.8-4 1 1.7 1 3.9 1 3.9l.9-.1c1.5 0 1.8 1.5.6 3z"/><path d="M29.6 4.9l1 .3-.9-2.6-.3 1.3.2 1zM33.5 5.8L32 4.6l.5 1.8.9-.6zM46.5 28.8c.7 0 1.4.2 2 .4 0-1.8-1-3.7-1.8-3.4-.5 0-.5.9-.5 1.4 0 .6 0 1.1.3 1.6zM32 6.8L29 6l1.9 1.7 1-.8zM39.5 31.4l1 .3v-.4a3 3 0 00-1.8-1.2c-1.4-.5-3-.2-4.2.8-.6.5-.9 1-.6 1l1-.2c2-1 3-1 4.6-.3zM39.7 33.1h.6c.1-.3-.8-1-2.2-.8l-.5.2h-.1c-.3 0-.7.2-1 .5-.2.2-.3.5-.2.6.1.1.3 0 .6-.1 1.2-.4 2-.4 2.8-.4zM16.6 38.9c.4.5.3.8.4.9 0 0 .1.1.2 0 .3-.1.3-.4.3-.7 0-.5-.3-1.1-.6-1.5-.6-.5-1.2-1-2.1-1.2-.8 0-1.5 0-1.7.2l-.4.1c-2 .8-3 2.8-2.5 4.8 0 .5.3 1 .6 1.4.4.5 1 .4.7 0l-.4-1.4c0-1 0-1.8.7-2.6.4-.5 1-.8 1-.8l.3-.1h.2l.3-.1c1.6-.3 2.6.3 3 1z"/><path d="M16 40.4c-.2 0-.3-.2-.3-.4s0-.3.3-.5c0 0 .2 0 .2-.2s-.5-.3-1 .1c-.4.4-.4 1.2.1 1.7.7.6 1.6.8 1.7 1.5v.8c-.1.8-1 1.5-2.2 1.3h-.4c-.1.1.4.8 1.4.6 1.4 0 2.5-1.4 2.2-3-.1-1.2-1.5-1.5-2-1.9zM49.1 31.8c0-.5-.1-1-.5-1-.3 0-.7.3-.8.8 0 .5.2 1 .5 1 .4 0 .7-.3.8-.8zM46.3 33.2c.3-.3 0-.9-.5-1.1-.5-.3-1-.2-1.3.1-.2.4 0 1 .6 1.2.5.3 1 .2 1.2-.2z"/></g><defs><clipPath id="clip0"><path fill="#fff" d="M0 0h64v64H0z"/></clipPath></defs></svg>
