<svg xmlns="http://www.w3.org/2000/svg" width="64" height="64" fill="none"><path fill="#00A1E0" d="M26.6 14.9a11.2 11.2 0 0118 2.4A13.9 13.9 0 0164 30a13.9 13.9 0 01-16.5 13.6 10 10 0 01-13.2 4.2 11.5 11.5 0 01-21.4-.5l-2.2.2C4.7 47.5 0 42.7 0 36.7c0-4 2.1-7.5 5.3-9.4a12.4 12.4 0 0121.3-12.5z"/><path fill="#fff" d="M9.3 33.2v.2l.4.2c.6.3 1.2.4 1.9.4 1.3 0 2.1-.7 2.1-1.8 0-1-1-1.4-1.8-1.7-.7-.2-1.3-.4-1.3-.8s.3-.7.8-.7c.6 0 1.3.2 1.7.4a99.8 99.8 0 00.4-1c-.5-.2-1.2-.4-1.9-.4h-.1c-1.2 0-2 .7-2 1.8 0 1 .9 1.4 1.7 1.7h.2c.6.2 1.1.4 1.1.8 0 .5-.3.8-.9.8-.2 0-1 0-1.7-.5l-.2-.1s-.1-.1-.2 0l-.2.7zM28.5 33.2v.2l.4.2c.6.3 1.3.4 1.9.4 1.3 0 2.1-.7 2.1-1.8 0-1-.9-1.4-1.8-1.7-.7-.2-1.3-.4-1.3-.8s.3-.7.9-.7c.5 0 1.2.2 1.6.4a104.8 104.8 0 00.4-1c-.5-.2-1.2-.4-1.9-.4h-.1c-1.2 0-2 .7-2 1.8 0 1 .9 1.4 1.7 1.7h.2c.6.2 1.2.4 1.2.8 0 .5-.4.8-1 .8-.2 0-.9 0-1.7-.5l-.2-.1s-.1-.1-.2 0l-.2.7zM41.6 31c0 .7-.1 1.2-.3 1.5-.3.4-.6.5-1.1.5-.5 0-.8-.1-1-.5-.3-.3-.4-.8-.4-1.5 0-.6.1-1.1.3-1.5.3-.3.6-.5 1-.5.6 0 1 .2 1.2.5.2.4.3.9.3 1.5zm1.1-1.1l-.5-1c-.2-.3-.5-.5-.8-.6l-1.2-.3c-.5 0-.9.1-1.2.3a2.4 2.4 0 00-1.3 1.6 4.2 4.2 0 000 2.3c0 .4.2.7.5 1l.8.6 1.2.2c.4 0 .8 0 1.2-.2l.8-.6.5-1a4.1 4.1 0 000-2.3zM51.7 32.9l-.1-.1a2.5 2.5 0 01-1.1.2c-.6 0-1-.2-1.3-.5-.3-.3-.5-.8-.5-1.5 0-.6.2-1 .4-1.4.3-.4.7-.6 1.3-.6l1.1.2h.2l.2-.8v-.1a4.3 4.3 0 00-2.8 0 2.5 2.5 0 00-1.4 1.5c-.2.4-.2.8-.2 1.2 0 1 .2 1.7.7 2.2.5.5 1.2.8 2.2.8.5 0 1.1 0 1.5-.3 0 0 .1 0 0 0l-.2-.8zM53.6 30.4l.3-.9c.2-.3.6-.5 1-.5.6 0 .9.2 1.1.5.2.3.2.6.3 1h-2.7zm3.7-.8a2.3 2.3 0 00-1.2-1.4l-1-.2c-.5 0-1 .1-1.3.3a2.4 2.4 0 00-1.3 1.6 4.2 4.2 0 000 2.3l.5 1c.3.3.6.5 1 .6l1.3.2c1 0 1.6-.2 1.9-.3v-.2l-.2-.7c0-.1-.2 0-.2 0-.2 0-.6.2-1.5.2-.6 0-1-.2-1.3-.4-.2-.3-.4-.7-.4-1.3H57.4v-1.7zM24 30.4c0-.3 0-.6.2-.9.2-.3.6-.5 1-.5.6 0 .9.2 1.1.5.2.3.2.6.3 1h-2.7zm3.6-.8a2.3 2.3 0 00-1.2-1.4l-1-.2c-.5 0-1 .1-1.3.3a2.4 2.4 0 00-1.3 1.6 4.2 4.2 0 000 2.3l.5 1c.3.3.6.5 1 .6l1.3.2c1 0 1.6-.2 1.9-.3v-.2l-.2-.7c0-.1-.2 0-.2 0-.2 0-.6.2-1.5.2-.6 0-1-.2-1.3-.4-.2-.3-.4-.7-.4-1.3H27.7c0-.1.1-.8-.1-1.7zM15.9 32.8a.8.8 0 01-.2-.2l-.1-.5c0-.3 0-.5.3-.7 0 0 .3-.3 1-.2h1V33l-1 .2c-.7 0-1-.3-1-.3zm1.5-2.6h-.6l-1 .1-.7.4-.5.6c-.2.3-.2.5-.2.9l.1.8.5.6c.2.1.5.3.8.3l1 .1h1a23.5 23.5 0 001.3-.3v-3.5c0-.8-.1-1.3-.5-1.7-.4-.3-1-.5-1.7-.5l-1 .1-1.2.4v.2l.3.7h.1c.8-.4 1.7-.4 1.7-.4.4 0 .7.1.9.3.2.1.3.4.3.9v.1h-.6zM47.3 28.3v-.1l-.7-.1a1.8 1.8 0 00-1.6.6v-.4-.2h-1l-.1.2v5.6h1l.2-.1V31v-1l.4-.5.5-.3a1.8 1.8 0 01.9 0h.1l.3-.9z"/><path fill="#fff" d="M38.1 25.8a3.2 3.2 0 00-.8-.2c-.7 0-1.2.2-1.6.6a3 3 0 00-.7 1.7v.2h-1v.1l-.2.8.1.1h.8l-.8 4.7-.2.9c0 .2-.2.4-.3.5l-.3.3a1.4 1.4 0 01-.7 0h-.2-.2a153.2 153.2 0 00-.2 1H33.6l.7-.6.5-.8.3-1.2.8-4.8h1.3l.2-.8-.1-.2H36l.2-.8c0-.2.2-.3.3-.4l.3-.2h.4a1.6 1.6 0 01.5 0h.1l.3-.8v-.1zM21.6 33.8l-.1.1h-1l-.1-.1v-8h1.2v8z"/></svg>
