<svg xmlns="http://www.w3.org/2000/svg" width="64" height="64" fill="none"><path fill="#9B5C8F" fill-rule="evenodd" d="M6 13h52a6 6 0 016 6v19.9a6 6 0 01-6 6H39.4l2.5 6.2-11.3-6.3H6a6 6 0 01-6-6V19a6 6 0 016-6z" clip-rule="evenodd"/><path fill="#fff" d="M3.2 18.4c.4-.5 1-.7 1.6-.8 1.4-.1 2.1.5 2.3 1.9a150 150 0 002.7 13.9l5.7-11c.5-1 1.2-1.4 2-1.5 1.1 0 1.8.7 2.1 2.2.7 3.5 1.5 6.4 2.5 9 .7-6.7 1.8-11.5 3.4-14.4a2 2 0 011.8-1.2c.6 0 1.1.1 1.6.5s.8 1 .8 1.5 0 .9-.2 1.3a48.7 48.7 0 00-3.3 19.4c0 .6 0 1.2-.3 1.7-.3.6-.8 1-1.4 1-.7 0-1.4-.3-2-1a25.9 25.9 0 01-5.9-11.2 490 490 0 00-3.7 7.6c-1.6 3-2.9 4.5-4 4.5-.7 0-1.3-.5-1.8-1.8-1.3-3.4-2.8-10-4.3-19.8-.1-.7 0-1.3.4-1.8zM59.4 22.5a6 6 0 00-4.1-3l-1.5-.2c-2.5 0-4.5 1.3-6.1 4-1.4 2.2-2 4.6-2 7.3 0 2 .4 3.8 1.2 5.2a6 6 0 004.2 3c.5.2 1 .2 1.4.2 2.6 0 4.6-1.3 6.2-4a14 14 0 002-7.3c0-2-.4-3.8-1.3-5.2zm-3.2 7.3a7 7 0 01-2 3.8c-.8.7-1.5 1-2.2.9-.6-.1-1.1-.7-1.5-1.7-.3-.8-.5-1.6-.5-2.4 0-.7 0-1.3.2-2 .2-1 .7-2 1.4-3 .9-1.3 1.8-1.8 2.7-1.6.6 0 1.2.6 1.6 1.7.3.8.4 1.6.4 2.3l-.1 2zM43 22.5a6 6 0 00-4.1-3l-1.5-.2c-2.5 0-4.5 1.3-6.1 4-1.4 2.2-2 4.6-2 7.3 0 2 .4 3.8 1.2 5.2a6 6 0 004.2 3c.5.2 1 .2 1.4.2 2.5 0 4.6-1.3 6.2-4a14 14 0 002-7.3c0-2-.4-3.8-1.3-5.2zm-3.3 7.3a7 7 0 01-2 3.8c-.7.7-1.4 1-2 .9-.7-.1-1.2-.7-1.6-1.7-.3-.8-.5-1.6-.5-2.4 0-.7 0-1.3.2-2 .2-1 .7-2 1.4-3 .9-1.3 1.8-1.8 2.7-1.6.6 0 1.2.6 1.6 1.7.3.8.4 1.6.4 2.3 0 .7 0 1.4-.2 2z"/></svg>
