<svg width="64" height="64" fill="none" xmlns="http://www.w3.org/2000/svg"><path d="M47.2 25.1v6.3a2.2 2.2 0 01-1.3 2c-4.3 2.1-9 3.3-14 3.4-4.7-.1-9.5-1.3-13.9-3.4a2.2 2.2 0 01-1.2-2V25a1.8 1.8 0 012.4-1.5c4 1.7 8.4 2.7 12.8 2.8 4.4-.1 8.7-1 12.7-2.8a1.8 1.8 0 012.5 1.5z" fill="#06F"/><path d="M63.6 39.8a15.1 15.1 0 01-15.2 13.8H40L24 64V53.6l16-10.4h8.4a4.7 4.7 0 004.9-4.2c.4-8 .4-16-.2-24a4.5 4.5 0 00-4.2-4A278 278 0 0015 11a4.5 4.5 0 00-4.2 4c-.5 8-.6 16 0 24a4.7 4.7 0 004.8 4.2H24v10.4h-8.4A15.1 15.1 0 01.4 39.8c-.6-8.6-.5-17.1 0-25.6A14.9 14.9 0 0114.4.6a250.2 250.2 0 0135.4 0 14.9 14.9 0 0113.8 13.6c.6 8.5.7 17 .1 25.6z" fill="#06F"/></svg>