<svg width="64" height="64" viewBox="0 0 64 64" fill="none" xmlns="http://www.w3.org/2000/svg"><path d="M53.6 14.7V4h-.5c-9 .4-16.3 6.2-20.8 10.7l-.3.3-.3-.3C27.2 10.2 19.8 4.4 11 4h-.5v10.7H0v18.5c0 4.4.2 9 .5 12.6a14.9 14.9 0 0 0 13.8 13.6 250.3 250.3 0 0 0 35.4 0 14.9 14.9 0 0 0 13.8-13.6c.3-3.7.5-8.1.5-12.6V14.7H53.6Zm0 18.5c0 4.2-.2 8.4-.4 11.8a4.4 4.4 0 0 1-4.2 4c-11.3.8-22.7.8-34 0a4.5 4.5 0 0 1-4.2-4 152 152 0 0 1-.4-11.8V14.7c7.6.3 15 8.4 17.3 11.5l4.3 6 4.3-6C38.6 23 46.1 15 53.6 14.7v18.5Z" fill="#9146FF"/></svg>