<svg width="64" height="64" viewBox="0 0 64 64" fill="none" xmlns="http://www.w3.org/2000/svg"><g clip-path="url(#a)"><path d="M32 4A27 27 0 0 0 4 31.2c0 8.1 3.3 15.2 8.8 20 .4.5.7 1 .7 1.6l.2 5a2.2 2.2 0 0 0 3.1 2l5.6-2.4c.5-.2 1-.3 1.5-.2 2.5.7 5.3 1.1 8.1 1.1a27 27 0 0 0 28-27.1A27 27 0 0 0 32 4Z" fill="url(#b)"/><path d="m15.2 39.1 8.2-13a4.2 4.2 0 0 1 6-1.2l6.6 5a1.7 1.7 0 0 0 2 0L47 23c1.2-.9 2.7.5 2 1.8l-8.3 13a4.2 4.2 0 0 1-6 1.2L28 34a1.7 1.7 0 0 0-2 0L17 41c-1.2.9-2.7-.5-2-1.8Z" fill="#fff"/></g><defs><radialGradient id="b" cx="0" cy="0" r="1" gradientUnits="userSpaceOnUse" gradientTransform="matrix(61.6 0 0 61.6001 13.4 60)"><stop stop-color="#09F"/><stop offset=".6" stop-color="#A033FF"/><stop offset=".9" stop-color="#FF5280"/><stop offset="1" stop-color="#FF7061"/></radialGradient><clipPath id="a"><path fill="#fff" d="M0 0h64v64H0z"/></clipPath></defs></svg>