<svg width="64" height="64" viewBox="0 0 64 64" fill="none" xmlns="http://www.w3.org/2000/svg"><g clip-path="url(#a)"><path fill-rule="evenodd" clip-rule="evenodd" d="M32 58A28 28 0 1 0 7.6 43.8L4 58l14.6-3.4c4 2.2 8.6 3.4 13.4 3.4Zm0-4.3a23.7 23.7 0 1 0-19.4-10.1l-2.1 8 8-2c3.9 2.5 8.5 4 13.5 4Z" fill="#BFC8D0"/><path d="M56 28a24 24 0 0 1-37.6 19.8l-8.2 2 2.1-8A24 24 0 1 1 56 28Z" fill="url(#b)"/><path fill-rule="evenodd" clip-rule="evenodd" d="M32 56A28 28 0 1 0 7.6 41.8L4 56l14.6-3.4c4 2.2 8.6 3.4 13.4 3.4Zm0-4.3a23.7 23.7 0 1 0-19.4-10.1l-2.1 8 8-2c3.9 2.5 8.5 4 13.5 4Z" fill="#fff"/><path d="M25 15c-.7-1.3-1.7-1.2-2.7-1.2-1.9 0-4.7 2.2-4.7 6.3 0 3.4 1.4 7 6.4 12.6 4.9 5.3 11.2 8 16.5 8 5.3-.1 6.3-4.7 6.3-6.2 0-.7-.4-1-.7-1.1l-5.8-2.8c-.8-.3-1.2.1-1.4.4-.7.6-2 2.5-2.5 3-.5.4-1.2.2-1.5 0-1-.4-3.9-1.7-6.2-4-2.8-2.7-3-3.6-3.5-4.4-.4-.7-.1-1.1 0-1.3l1.9-2.3c.3-.6 0-1.4-.1-1.9L25 15Z" fill="#fff"/></g><defs><linearGradient id="b" x1="53" y1="10" x2="8" y2="52" gradientUnits="userSpaceOnUse"><stop stop-color="#5BD066"/><stop offset="1" stop-color="#27B43E"/></linearGradient><clipPath id="a"><path fill="#fff" d="M0 0h64v64H0z"/></clipPath></defs></svg>