<svg xmlns="http://www.w3.org/2000/svg" width="64" height="64" fill="none"><path fill="#32373C" d="M32 2a29.9 29.9 0 0130 30 29.9 29.9 0 01-30 30A29.9 29.9 0 012 32 29.9 29.9 0 0132 2zm0-2a32 32 0 100 64 32 32 0 000-64z"/><path fill="#32373C" d="M5.3 32c0 10.6 6.2 19.7 15 24L7.7 21.1c-1.4 3.4-2.3 7-2.3 10.9zM50 30.7a14 14 0 00-2.2-7.4c-1.3-2.2-2.6-4-2.6-6.3 0-2.4 1.8-4.7 4.5-4.7h.3a26.6 26.6 0 00-40.3 5 55.9 55.9 0 008.8-.3c1.5 0 1.6 2 .2 2.2l-3 .3 9.7 28.9 5.8-17.5-4.1-11.4c-1.5 0-2.8-.3-2.8-.3-1.5 0-1.3-2.2.1-2.2 0 0 4.4.4 7 .4 2.8 0 7.2-.4 7.2-.4 1.4 0 1.6 2 .1 2.2l-3 .3 9.6 28.7 2.8-8.8c1.2-3.8 1.9-6.5 1.9-8.7zm-17.5 3.6l-8 23.3a26.6 26.6 0 0016.4-.4l-.2-.4-8.2-22.5zm22.9-15l.2 2.6c0 2.8-.5 5.8-2 9.6L45.4 55a26.7 26.7 0 0010-35.8z"/></svg>
