<?xml version="1.0" encoding="utf-8"?>
<!-- Generator: Adobe Illustrator 27.0.0, SVG Export Plug-In . SVG Version: 6.00 Build 0)  -->
<svg version="1.1" id="Layer_1" xmlns="http://www.w3.org/2000/svg" xmlns:xlink="http://www.w3.org/1999/xlink" x="0px" y="0px"
	 viewBox="0 0 550 370" style="enable-background:new 0 0 550 370;" xml:space="preserve">
<style type="text/css">
	.st0{fill:#FFFFFF;}
</style>
<g>
	<path class="st0" d="M265.78,58.62c-5.18-1.29-11.64-3-19.86-2.04c-4.21,0.57-10.48,3.82-11.5,4.32c-1.02,0.5-7.33,4.19-7.79,4.59
		s-8.41,7.21-8.49,7.34c-0.08,0.13-11.9,17.29-11.9,17.29l-3.36,38.29c0,0,19.43,43.57,28.43,43.29s11.71-11.29,11.71-11.29
		s-3.57-49.36,2.14-61.82c5.71-12.46,23.57-36.32,23.57-36.32L265.78,58.62z"/>
	<path d="M346.46,65.83c-1.71-5.79-1.29-7.54,0-10.75c1.29-3.21,5.27-12.2,11.59-14.45c6.32-2.25,14.27,0.45,17.98,4.34
		c3.71,3.89,8.86,7.98,9.55,16.93c0.16,4.61-3.54,9.8-7.82,13.02c-4.29,3.21-7.61,5.57-10.07,6.27s-23.68-10.71-23.68-10.71
		L346.46,65.83z"/>
	<path d="M260.87,81.35c1.45-3.54,4.48-9.38,8.55-12.2c2.14-1.36,2.96-1.12,3.71-0.98c0.75,0.13,6.1,1.93,10.01-2.09
		c0,0,3.07-3.27,7.57-5.73c3.14-1.61,5.54-3.78,6.75-4.05c1.21-0.27,4.07-3.32,2.07-9.71s-4.25-14.16-12.82-16.79
		c-3.43-0.79-9.32-0.61-13.89,2.39c-4.57,3-6.71,5.39-8.46,7.46c-1.75,2.07-5.39,5.79-4.21,12.96c0.48,2.89,2.43,6.05,3.77,7.57
		c1.34,1.52,1.21,2.45-0.89,4.02c-2.11,1.57-17.23,11.98-23.77,28.38c-6.54,16.39-5.68,22.29-5.57,33.64
		c-0.02,9.1-0.05,10.29-0.64,16.5c-0.59,6.21-0.05,11.3,2.36,19.02c1.29,3.64,2.01,5.49,0.13,4.21c-1.88-1.29-9.21-5.19-17.99-18.62
		c-8.79-13.43-11.29-31.82-9.25-42.64c2.04-10.82,6.43-29.57,27.54-43.71c3.75-2.25,4.67-2.8,3.14-2.25
		c-1.47,0.54-12.36,3.54-22.86,12.54s-22.07,26.07-21.64,49.64c0.57,9.29,1.07,17.43,2.04,20.05c0.96,2.62,2.04,4.82,2.25,12.43
		c0.21,7.61,0.64,31.55,9.75,47.2c9.11,15.64,18.96,16.61,30.64,15.54c11.68-1.07,10.75-7.07,7.25-14.36
		c-3.71-5.82-2.68-11.04-2.39-14.04c0.29-3,0.82-3.5,1.89-0.64s5.57,13.96,11.43,25.18c5.86,11.21,12.07,19.64,21.29,25.5
		s23.71,7.79,34.21,3c9.93-4.64,1.07-13-0.64-17.64c0,0-4.25-9.57-1.89-31.75c5.32-18.75,14.46-13.25,15.32-2.04
		s-0.64,19.39-1.71,26.79c-1.07,7.39,0,20.79,18.43,16.18c18.43-4.61,28.43-26.39,32.57-42.68c4.14-16.29,8.43-37,8.71-57.43
		s-6.68-38.11-12.79-39.07S307.6,61.52,307.6,61.52L260.87,81.35z"/>
	<path class="st0" d="M272.49,67.54c2.79,0.59,5.36,1.21,9.11-2.2c3.75-3.4,5.11-4.93,8.68-6.93c3.57-2,6.18-2.54,7.21-3
		c0,0,1.03-0.48,2.19-2.23c0.5-0.83,14.92-1.16,22.96-0.02c8.04,1.14,20.07,5.78,23.07,8.75c0.64,1.14,0.95,2.16,3.16,3.11
		c2.21,0.95,6.5,2.57,13.25,10.23c3.7,3.96,5.45,4.38,8.27,4.12c1.09-0.14,1.49,0.75,1.86,1.23s5.72,7.82,6.69,18.11
		s1.88,23.62-8.09,39.7c-3.38,5.09-15.21,15.21-26.84,18.11c-4.18,0.59-6.4-0.11-8.25,0.19c-1.85,0.29-5.87,0.72-8.06,3.59
		c-2.2,2.87-2.62,5.2-5.84,5.3c-3.21,0.11-8.33-2.62-11.09-3.51c-2.76-0.88-6.56-0.13-9.54,0.11s-6.27,0.43-8.41-3.35
		c-1.69-3.24-3.16-6.8-6.96-8.76c-2.95-1.42-4.77-1.34-7.42-2.52s-9.59-4.39-16.02-13.71c-6.43-9.32-8.89-21.7-6.96-34.88
		c1.93-13.18,4.45-20.89,11.36-29.04C270.13,66.4,272.49,67.54,272.49,67.54z"/>
	<path d="M280.02,105.7c-2.44,3.05-6.88,8.97-6.72,16.79c1.66,8.25,7.55,11.73,11.46,10.88c3.91-0.86,8.57-5.62,12-9.59
		c3.43-3.96,7.55-7.98,6.05-13.66s-2.52-9.43-10.12-11.46C284.44,97.74,280.02,105.7,280.02,105.7z"/>
	<path d="M330.31,112.23c2.25-3.64,5.11-6.93,11.39-6.89c3,0.11,6.75,1.64,9.14,6.29c2.39,4.64,4.62,11.79,4.3,17.46
		c-0.32,5.68-3.59,9.21-6.38,10.66c-2.79,1.45-7.07,3.91-11.14-0.64c-4.07-4.55-4.5-6.8-6.91-12.48c-2.41-5.68-3.82-9.28-1.88-12.21
		C329.92,112.9,330.31,112.23,330.31,112.23z"/>
	<path d="M211.47,262.03c-3.34,0-9.43,0-10.57,0c-1.14,0-3.23,0.84-3.32,3.18c-0.09,2.34,1.2,5.91,1.82,7.66
		s10.38,29.79,12.77,36.04c2.39,6.25,6.16,5.79,7.86,1.82c1.55-3.62,9.59-21.87,10.98-25.01c0.07-0.17,0.31-0.16,0.38,0.01
		c1.16,3.11,7.77,20.79,9.24,24.31c1.45,3.62,3.46,3.51,4.55,3.4c1.09-0.11,2.2-0.95,3.45-4.16c1.25-3.21,15.01-39.68,16.08-42.92
		c1.07-3.24-1.15-4.27-2.97-4.33c-1.82-0.06-3.03,1.06-5.12,5.94c-1.85,4.31-6.77,15.62-7.89,18.18c-0.08,0.18-0.33,0.16-0.38-0.03
		c-0.81-2.82-4.49-15.72-5.66-19.82c-1.04-3.35-2.71-4.22-4.57-4.24c-1.86-0.02-7.15-0.05-8.41-0.03c-1.26,0.02-2.92,0.29-3.13,4.17
		c-0.21,3.72,0.18,8.87,0.68,9.86c0.04,0.07,0.04,0.14,0,0.21c-1.22,1.87-5.52,8.23-6.6,9.82c-0.1,0.15-0.32,0.11-0.36-0.06
		c-0.76-2.83-5.07-18.84-5.75-21.48C213.78,261.65,211.47,262.03,211.47,262.03z"/>
	<path d="M283.26,262.07c-3.34,0-9.43,0-10.57,0s-3.23,0.84-3.32,3.18c-0.09,2.34,1.2,5.91,1.82,7.66s10.38,29.79,12.77,36.04
		s6.16,5.79,7.86,1.82c1.55-3.62,9.59-21.87,10.98-25.01c0.07-0.17,0.31-0.16,0.38,0.01c1.16,3.11,7.77,20.79,9.24,24.31
		c1.45,3.62,3.46,3.51,4.55,3.4s2.2-0.95,3.45-4.16s15.01-39.68,16.08-42.92c1.07-3.24-1.15-4.27-2.97-4.33
		c-1.82-0.06-3.03,1.06-5.12,5.94c-1.85,4.31-6.77,15.62-7.89,18.18c-0.08,0.18-0.33,0.16-0.38-0.03
		c-0.81-2.82-4.49-15.72-5.66-19.82c-1.04-3.35-2.71-4.22-4.57-4.24c-1.86-0.02-7.15-0.05-8.41-0.03c-1.26,0.02-2.92,0.29-3.13,4.17
		c-0.21,3.72,0.18,8.87,0.68,9.86c0.04,0.07,0.04,0.14,0,0.21c-1.22,1.87-5.52,8.23-6.6,9.82c-0.1,0.15-0.32,0.11-0.36-0.06
		c-0.76-2.83-5.07-18.84-5.75-21.48C285.56,261.69,283.26,262.07,283.26,262.07z"/>
	<path d="M341.33,266.49c0.04,9.38-0.03,39.08-0.03,42c0,2.92,0.4,4.9,5.06,4.96c4.66,0.05,7.34,0.05,8.45,0
		c1.11-0.05,2.28-1.17,2.33-3.39c0.05-2.22,0-21.71,0-21.71s12.82,0.21,15.52,0.05c2.71-0.16,3.8-2.12,3.56-3.94
		c-0.24-1.82-1.5-2.52-5.92-2.52s-13.12-0.03-13.12-0.03s0.05-8.71,0.08-9.91c0.03-1.21-0.27-2.92,2.84-2.97
		c3.11-0.05,17.06,0.08,19.23,0s3.4-1.26,3.35-3.48c-0.05-2.22-0.94-3.62-4.53-3.62c-3.59,0-29.97,0-32.65,0
		C342.83,261.94,341.32,263.76,341.33,266.49z"/>
</g>
</svg>
