<svg xmlns="http://www.w3.org/2000/svg" width="64" height="64" fill="none"><g clip-path="url(#clip0)"><path fill="#009FE3" d="M64 47.25A2.75 2.75 0 0161.26 50H2.74A2.74 2.74 0 010 47.25v-35.5A2.75 2.75 0 012.74 9h58.52A2.75 2.75 0 0164 11.76v35.49z"/><path fill="#fff" d="M63.38 10.03c-7.54 11.86-19.34 22.7-31.47 22.44-4.46-.1-9.54-1.4-13.87-4.95a22.08 22.08 0 01-7.68-12.66H9.01a2.93 2.93 0 00-2.9 3.36l.19 1.23a26.15 26.15 0 009.96 16.39A26.4 26.4 0 0032 41.22c10.65-.04 22.07-6.82 32-24.4v-5.06c0-.66-.24-1.25-.62-1.73z"/></g><defs><clipPath id="clip0"><path fill="#fff" d="M0 9h64v41H0z"/></clipPath></defs></svg>
