<svg xmlns="http://www.w3.org/2000/svg" width="64" height="64" fill="none"><path fill="#95BF46" d="M53.3 12.5c0-.4-.3-.5-.6-.6l-5.1-.3-3.8-3.8c-.4-.4-1.1-.3-1.4-.2l-2 .6c-1-3.3-3-6.3-6.6-6.3h-.3C32.5.6 31.2 0 30.2 0 21.9 0 18 10.3 16.7 15.6L11 17.4c-1.7.5-1.8.6-2 2.3L4 57.2 40.5 64l19.8-4.3-7-47.2zM38.5 8.8l-3.1 1V9c0-2-.3-3.7-.8-5 1.9.3 3 2.3 3.9 4.7zm-6.1-4.3c.5 1.3.8 3.1.8 5.6v.4l-6.4 2c1.3-4.8 3.6-7.1 5.6-8zm-2.5-2.3c.4 0 .7.1 1 .4-2.6 1.2-5.4 4.4-6.6 10.6-1.7.6-3.5 1-5 1.6C20.7 10 24 2.2 29.9 2.2z"/><path fill="#5E8E3E" d="M52.7 12l-5.1-.4-3.8-3.8a1 1 0 00-.5-.3L40.5 64l19.8-4.3-7-47.2c0-.4-.3-.5-.6-.6z"/><path fill="#fff" d="M33.8 22.9L31.3 30s-2-1.1-4.7-1.1c-3.8 0-4 2.4-4 3 0 3.3 8.6 4.6 8.6 12.3 0 6.1-3.9 10-9.1 10-6.3 0-9.5-3.8-9.5-3.8l1.7-5.6s3.3 2.9 6 2.9c1.9 0 2.6-1.5 2.6-2.5 0-4.3-7-4.5-7-11.6 0-6 4.2-11.8 12.9-11.8 3.3 0 5 1 5 1z"/></svg>
