<svg xmlns="http://www.w3.org/2000/svg" width="64" height="64" fill="none"><path fill="#F22F46" d="M32 0a32 32 0 100 64 32 32 0 000-64zm0 55.5C19 55.5 8.5 45 8.5 32S19 8.5 32 8.5 55.5 19 55.5 32 45 55.5 32 55.5zM46.5 24c0 3.6-3 6.6-6.6 6.6-3.6 0-6.6-3-6.6-6.6 0-3.6 3-6.6 6.6-6.6 3.6 0 6.6 3 6.6 6.6zm0 15.8c0 3.6-3 6.6-6.6 6.6-3.6 0-6.6-3-6.6-6.6 0-3.6 3-6.6 6.6-6.6 3.6 0 6.6 3 6.6 6.6zm-15.8 0c0 3.6-3 6.6-6.6 6.6-3.6 0-6.6-3-6.6-6.6 0-3.6 3-6.6 6.6-6.6 3.6 0 6.6 3 6.6 6.6zm0-15.8c0 3.6-3 6.6-6.6 6.6-3.6 0-6.6-3-6.6-6.6 0-3.6 3-6.6 6.6-6.6 3.6 0 6.6 3 6.6 6.6z"/></svg>
