<svg width="64" height="64" fill="none" xmlns="http://www.w3.org/2000/svg"><path d="M32 28.6l16.3-14.2H32c-5.8 0-11.5.2-17 .6a4.5 4.5 0 00-4.1 4c-.3 3.4-.5 7.6-.5 11.8v2.4c0 4.2.2 8.4.4 11.8a4.5 4.5 0 004.2 4c11.3.8 22.7.8 34 0a4.4 4.4 0 004.2-4c.2-3.2.4-7.2.4-11.2l10.4-9v9c0 4.3-.2 8.5-.5 12a14.9 14.9 0 01-13.8 13.6 237.3 237.3 0 01-35.4 0A14.9 14.9 0 01.5 45.8 166 166 0 010 33.2v-2.4c0-4.5.2-9 .5-12.6A14.9 14.9 0 0114.3 4.6 250 250 0 0132 4h32v10.4L32 42.2l-15-13 7.9-6.8 7.1 6.2z" fill="#2FC774"/></svg>