<svg width="64" height="64" viewBox="0 0 64 64" fill="none" xmlns="http://www.w3.org/2000/svg"><g clip-path="url(#a)"><g clip-path="url(#b)"><path d="M53.3 4H10.7C7 4 4 7 4 10.7v42.6C4 57 7 60 10.7 60h42.6c3.7 0 6.7-3 6.7-6.7V10.7C60 7 57 4 53.3 4Z" fill="#FF4F00"/><path d="m12.4 49.6 5-4.7v-2.2h-8v2.2h4.8l-5 4.7v2.2h8.4v-2.2h-5.2ZM22.5 42.5c-.9 0-1.7.1-2.2.4a3 3 0 0 0-1.4 1.2c-.3.5-.5 1-.5 1.6l2.4.4c.1-.5.3-1 .6-1.1.3-.3.6-.4 1-.4.5 0 .9.2 1.1.4.2.3.3.7.3 1.2v.2h-2.3c-1.2 0-2 .3-2.6.8-.5.5-.8 1.2-.8 2.1 0 1 .3 1.6.8 2a3 3 0 0 0 2 .7c1 0 1.7-.4 2.2-1l.7-1.4.4 2.2h2.2V46c0-1.1-.3-2-.9-2.7-.6-.6-1.6-1-3-1Zm.8 7c-.3.2-.8.4-1.4.4-.5 0-.8-.1-1-.3a.8.8 0 0 1-.2-.6.8.8 0 0 1 .2-.6.9.9 0 0 1 .6-.3h2.3v.2a1.4 1.4 0 0 1-.5 1.1ZM40 42.7h-2.7v9h2.6v-9ZM55.5 42.7c-.8 0-1.4.2-1.8.8A4 4 0 0 0 53 45l-.4-2.4h-2.3v9H53v-4.6c0-.6 0-1 .4-1.3.2-.4.8-.5 1.5-.5h1v-2.6h-.4ZM47.7 43c-.6-.4-1.4-.6-2.3-.6-1.5 0-2.6.5-3.5 1.3-.8.8-1.2 2-1.2 3.5 0 .8.2 1.7.5 2.5a4 4 0 0 0 1.7 1.7c.7.4 1.5.6 2.5.6a5 5 0 0 0 2-.3c.6-.3 1-.6 1.4-1.1.3-.4.5-1 .7-1.5l-2.3-.6c0 .3-.3.6-.5.9-.3.3-.7.4-1.3.4-.7 0-1.3-.2-1.6-.6-.3-.3-.4-.7-.5-1.3h6.2v-1.2a5 5 0 0 0-.4-2.2c-.3-.6-.8-1.2-1.4-1.5Zm-2.4 1.6c1 0 1.7.5 1.8 1.6h-3.7c0-.4.2-.7.4-1 .3-.4.8-.6 1.5-.6ZM38.6 39a1.5 1.5 0 0 0-1 .4 1.4 1.4 0 0 0-.5 1 1.4 1.4 0 0 0 1.5 1.6 1.4 1.4 0 0 0 1.5-1.5 1.4 1.4 0 0 0-1.5-1.5ZM33.2 42.4c-.9 0-1.6.3-2.2.9-.4.4-.7 1-.9 1.8l-.4-2.4h-2.2v11.7H30v-4.8h.1l.3 1c.3.4.6.8 1 1 .6.3 1 .5 1.6.5 1.1 0 2-.5 2.6-1.3.5-.9.8-2 .8-3.6 0-1.5-.3-2.7-.8-3.5a2.8 2.8 0 0 0-2.5-1.3Zm.3 6.6c-.3.5-.8.7-1.5.7a1.7 1.7 0 0 1-1.4-.6c-.3-.5-.5-1-.5-1.8V47c0-.7.2-1.3.5-1.7.3-.4.8-.6 1.4-.6.7 0 1.2.2 1.5.6.3.4.4 1 .4 1.8s-.1 1.4-.4 1.8Z" fill="#FFFDF9"/></g></g><defs><clipPath id="a"><path fill="#fff" d="M0 0h64v64H0z"/></clipPath><clipPath id="b"><path fill="#fff" d="M4 4h56v56H4z"/></clipPath></defs></svg>