<?xml version="1.0" encoding="utf-8"?>
<!-- Generator: Adobe Illustrator 27.0.0, SVG Export Plug-In . SVG Version: 6.00 Build 0)  -->
<svg version="1.1" id="Layer_1" xmlns="http://www.w3.org/2000/svg" xmlns:xlink="http://www.w3.org/1999/xlink" x="0px" y="0px"
	 viewBox="0 0 200.02 200.02" style="enable-background:new 0 0 200.02 200.02;" xml:space="preserve">
<style type="text/css">
	.st0{fill:none;}
	.st1{fill:#FFFFFF;}
	.st2{fill:#2371B2;}
	.st3{fill:#45AA48;}
	.st4{fill:#25AA9B;}
	.st5{fill:#196E3D;}
	.st6{fill:#23965B;}
	.st7{fill:#DBDFDC;}
</style>
<rect y="0" class="st0" width="200.02" height="200.02"/>
<rect y="0" class="st1" width="200.02" height="200.02"/>
<g>
	<path class="st2" d="M160.72,96l23.23-44.31c2.05-3.81,3.25-8.17,3.25-12.77c0.01-14.74-11.89-26.63-26.63-26.63
		c-10.23,0-19.03,5.7-23.54,14.19l-6.74,12.6V96C130.29,96,160.72,96,160.72,96z"/>
	<path class="st3" d="M130.37,95.92V39.09l-6.74-12.6c-4.52-8.48-13.4-14.19-23.62-14.19s-19.1,5.7-23.62,14.19l-6.74,12.6v56.83
		H130.37z"/>
	<path class="st4" d="M39.29,96L16.06,51.7c-2.05-3.81-3.25-8.17-3.25-12.77c0-14.74,11.89-26.63,26.64-26.63
		c10.23,0,19.02,5.7,23.54,14.19l6.74,12.6V96C69.73,96,39.29,96,39.29,96z"/>
	<path class="st5" d="M100.01,95.92l18.95,35.51c2.29,4.05,6.66,6.75,11.57,6.75c5,0,9.44-2.78,11.66-6.9L160.72,96l-30.36-56.91
		C130.36,39.09,100.01,95.92,100.01,95.92z"/>
	<path class="st6" d="M100.01,95.92l-18.95,35.51c-2.29,4.05-6.66,6.75-11.57,6.75c-4.99,0-9.44-2.78-11.65-6.9L39.29,96
		l30.36-56.91C69.65,39.09,100.01,95.92,100.01,95.92z"/>
	<path class="st7" d="M75.28,169.24c0.87,3.01,1.43,6.18,1.91,9.36c0.08-3.34,0.47-6.34,1.19-9.36l4.99-20.68h8.09l-9.99,38.12
		h-7.85l-6.89-24.33c-0.48-1.59-1.03-3.81-1.19-6.89c-0.15,2.54-0.56,4.83-1.11,6.89l-6.82,24.33h-7.85l-9.99-38.21h8.17l4.99,21.17
		c0.56,2.62,0.87,5.47,1.03,8.56c0.56-3.56,1.35-6.5,1.99-8.96l5.63-20.85h8.01C69.59,148.4,75.28,169.24,75.28,169.24z
		 M115.63,154.19c-8.17,0-13.32,5.32-13.32,13.48c0,7.93,4.68,13.07,12.52,13.07c4.36,0,8.16-1.42,11.42-4.44l-0.08,8.4
		c-3.49,2.06-7.3,3.01-11.49,3.01c-12.37,0-20.85-8.56-20.85-20.05c0-11.25,8.25-20.05,21.01-20.05c4.84,0,8.56,1.19,11.66,2.7
		l-0.24,8.16C123.47,155.94,120.14,154.19,115.63,154.19z M137.66,176.7c1.19,2.85,3.89,4.52,7.06,4.52c3.96,0,6.18-2.06,6.18-4.99
		c0-3.34-3.17-4.05-8.4-6.82c-5.63-2.93-8.88-5.71-8.88-11.03c0-6.02,5.15-10.78,13.48-10.78c4.6,0,7.85,1.58,10.38,4.99l-4.84,4.6
		c-1.19-2.22-3.09-3.32-5.7-3.32c-3.34,0-5.39,1.9-5.39,4.36c0,3.5,3.41,4.36,7.68,6.26c6.43,2.93,9.52,6.58,9.52,11.34
		c0,6.89-4.99,11.73-13.48,11.73c-5.95,0-10.15-2.13-12.21-5.87C133.07,181.69,137.66,176.7,137.66,176.7z"/>
</g>
</svg>
